HIERARCHY
ROOT joint_Root
{
	OFFSET 0.0 0.0 0.0
	CHANNELS 6 Xposition Yposition Zposition Zrotation Xrotation Yrotation 
	JOINT Hips
	{
		OFFSET -17.1583 93.1646 452.98
		CHANNELS 6 Xposition Yposition Zposition Zrotation Xrotation Yrotation 
		JOINT Spine
		{
			OFFSET 15.7357 0.0 0.0
			CHANNELS 6 Xposition Yposition Zposition Zrotation Xrotation Yrotation 
			JOINT Chest
			{
				OFFSET 8.98455 -0.406207 0.0
				CHANNELS 6 Xposition Yposition Zposition Zrotation Xrotation Yrotation 
				JOINT Neck
				{
					OFFSET 16.3773 0.0 0.0
					CHANNELS 6 Xposition Yposition Zposition Zrotation Xrotation Yrotation 
					JOINT Head
					{
						OFFSET 6.45672 0.0 0.0
						CHANNELS 6 Xposition Yposition Zposition Zrotation Xrotation Yrotation 
						End Site
						{
							OFFSET 0.0 0.0 0.0
						}
					}
				}
				JOINT Shoulder_L
				{
					OFFSET 12.9942 -0.242716 4.98039
					CHANNELS 6 Xposition Yposition Zposition Zrotation Xrotation Yrotation 
					JOINT UpperArm_L
					{
						OFFSET 5.34809 0.0 0.0
						CHANNELS 6 Xposition Yposition Zposition Zrotation Xrotation Yrotation 
						JOINT LowerArm_L
						{
							OFFSET 24.3286 1.87007e-05 0.0
							CHANNELS 6 Xposition Yposition Zposition Zrotation Xrotation Yrotation 
							JOINT Hand_L
							{
								OFFSET 22.2916 0.0 0.0
								CHANNELS 6 Xposition Yposition Zposition Zrotation Xrotation Yrotation 
								End Site
								{
									OFFSET 0.0 0.0 0.0
								}
							}
						}
					}
				}
				JOINT Shoulder_R
				{
					OFFSET 12.9945 -0.242716 -4.98039
					CHANNELS 6 Xposition Yposition Zposition Zrotation Xrotation Yrotation 
					JOINT UpperArm_R
					{
						OFFSET -5.34813 0.0 0.0
						CHANNELS 6 Xposition Yposition Zposition Zrotation Xrotation Yrotation 
						JOINT LowerArm_R
						{
							OFFSET -24.3289 0.000322201 0.0
							CHANNELS 6 Xposition Yposition Zposition Zrotation Xrotation Yrotation 
							JOINT Hand_R
							{
								OFFSET -22.2915 -0.000108084 0.0
								CHANNELS 6 Xposition Yposition Zposition Zrotation Xrotation Yrotation 
								End Site
								{
									OFFSET 0.0 0.0 0.0
								}
							}
						}
					}
				}
			}
		}
		JOINT UpperLeg_L
		{
			OFFSET -2.19248 -6.46944 0.0
			CHANNELS 6 Xposition Yposition Zposition Zrotation Xrotation Yrotation 
			JOINT LowerLeg_L
			{
				OFFSET 39.0811 0.0 -1.23785e-05
				CHANNELS 6 Xposition Yposition Zposition Zrotation Xrotation Yrotation 
				JOINT Foot_L
				{
					OFFSET 40.9854 0.0 -1.26872e-05
					CHANNELS 6 Xposition Yposition Zposition Zrotation Xrotation Yrotation 
					JOINT Toes_L
					{
						OFFSET 11.7543 0.0 0.0
						CHANNELS 6 Xposition Yposition Zposition Zrotation Xrotation Yrotation 
						End Site
						{
							OFFSET 0.0 0.0 0.0
						}
					}
				}
			}
		}
		JOINT UpperLeg_R
		{
			OFFSET -2.19251 6.46944 0.0
			CHANNELS 6 Xposition Yposition Zposition Zrotation Xrotation Yrotation 
			JOINT LowerLeg_R
			{
				OFFSET -39.0811 -0.00228153 -0.0401928
				CHANNELS 6 Xposition Yposition Zposition Zrotation Xrotation Yrotation 
				JOINT Foot_R
				{
					OFFSET -40.9854 0.0 0.0
					CHANNELS 6 Xposition Yposition Zposition Zrotation Xrotation Yrotation 
					JOINT Toes_R
					{
						OFFSET -11.7543 0.0 0.0
						CHANNELS 6 Xposition Yposition Zposition Zrotation Xrotation Yrotation 
						End Site
						{
							OFFSET 0.0 0.0 0.0
						}
					}
				}
			}
		}
	}
}
MOTION
Frames:	4
Frame Time:	0.0333333
0.000000 0.000000 0.000000 0.000000 0.000000 -0.000000 -1.704150 93.688400 2.877940 87.887800 -0.233984 -8.512320 15.735700 0.000005 -0.000001 -82.688900 88.122500 84.246200 8.984550 -0.406207 -0.000000 -11.479000 -0.736087 3.053460 16.377300 -0.000001 -0.000001 -7.442850 1.001390 2.490320 6.456720 -0.000001 -0.000000 -2.295370 3.275830 2.413540 12.994200 -0.242716 4.980390 -87.314800 -5.164660 -62.480000 5.348090 -0.000007 -0.000001 -64.038200 -62.718500 -105.135000 24.328600 0.000019 0.000005 0.000045 -5.185920 0.000001 22.291600 -0.000001 0.000005 51.129100 4.106190 22.698300 12.994500 -0.242716 -4.980390 94.289600 -7.497150 -60.106300 -5.348130 -0.000001 -0.000004 -67.560800 -61.325200 -117.079000 -24.328900 0.000322 -0.000009 -0.001058 -18.850900 -0.000105 -22.291500 -0.000108 -0.000004 49.433000 5.373360 -2.090690 -2.192480 -6.469440 -0.000000 -172.142000 -6.463810 -0.732757 39.081100 -0.000007 -0.000012 -0.000001 -0.009223 0.000000 40.985400 -0.000006 -0.000013 -10.170500 13.957100 -60.422400 11.754300 -0.000000 0.000003 -0.001381 0.188301 -8.937950 -2.192510 6.469440 -0.000001 179.053000 9.723430 178.503000 -39.081100 -0.002282 -0.040193 0.005691 -0.068695 1.949980 -40.985400 0.000008 0.000006 -9.439900 6.888100 -62.356000 -11.754300 -0.000006 -0.000006 -0.010376 0.274095 -5.436860
0.000000 0.000000 0.000000 0.000000 0.000000 -0.000000 -1.692430 93.680900 2.857530 87.884800 -0.202503 -8.493250 15.735700 0.000005 -0.000001 -82.715700 88.127600 84.278700 8.984550 -0.406207 -0.000000 -11.469100 -0.733918 3.065460 16.377300 -0.000001 -0.000001 -7.266360 0.996431 2.493270 6.456720 -0.000001 -0.000000 -2.351450 3.287610 2.352800 12.994200 -0.242716 4.980390 -87.339800 -5.106880 -62.436900 5.348090 -0.000007 -0.000001 -63.617100 -62.709200 -104.585000 24.328600 0.000019 0.000005 0.000045 -4.993810 0.000001 22.291600 -0.000001 0.000005 50.935200 4.106780 22.689700 12.994500 -0.242716 -4.980390 94.297100 -7.491520 -60.044600 -5.348130 -0.000001 -0.000004 -67.758600 -61.257400 -117.249000 -24.328900 0.000322 -0.000009 -0.001058 -18.760800 -0.000104 -22.291500 -0.000108 -0.000004 49.426100 5.374300 -2.120220 -2.192480 -6.469440 -0.000000 -172.131000 -6.389390 -0.732010 39.081100 -0.000007 -0.000012 -0.000001 -0.010179 0.000000 40.985400 -0.000006 -0.000013 -10.187300 13.925100 -60.458600 11.754300 -0.000000 0.000003 -0.001430 0.188965 -8.910950 -2.192510 6.469440 -0.000001 179.059000 9.731930 178.504000 -39.081100 -0.002282 -0.040193 0.005696 -0.068198 1.968670 -40.985400 0.000008 0.000006 -9.392280 6.861460 -62.398000 -11.754300 -0.000006 -0.000006 -0.010528 0.275209 -5.391280
0.000000 0.000000 0.000000 0.000000 0.000000 -0.000000 -1.682500 93.686500 2.859210 87.904500 -0.174923 -8.453860 15.735700 0.000005 -0.000001 -82.721400 88.154500 84.267400 8.984550 -0.406207 -0.000000 -11.416100 -0.723251 3.032610 16.377300 -0.000001 -0.000001 -7.190140 0.950336 2.525270 6.456720 -0.000001 -0.000000 -2.365740 3.276460 2.394020 12.994200 -0.242716 4.980390 -87.356900 -5.073680 -62.435700 5.348090 -0.000007 -0.000001 -63.211100 -62.774900 -104.069000 24.328600 0.000019 0.000005 0.000045 -4.948420 0.000001 22.291600 -0.000001 0.000005 51.041500 4.101590 22.765400 12.994500 -0.242716 -4.980390 94.281200 -7.455780 -60.018700 -5.348130 -0.000001 -0.000004 -67.532200 -61.358800 -117.035000 -24.328900 0.000322 -0.000009 -0.001058 -18.823500 -0.000105 -22.291500 -0.000108 -0.000004 49.365600 5.374750 -2.134180 -2.192480 -6.469440 -0.000000 -172.150000 -6.369950 -0.700122 39.081100 -0.000007 -0.000012 -0.000001 -0.009413 0.000000 40.985400 -0.000006 -0.000013 -10.215000 13.944200 -60.462400 11.754300 -0.000000 0.000003 -0.001615 0.191421 -8.811120 -2.192510 6.469440 -0.000001 179.025000 9.681690 178.545000 -39.081100 -0.002282 -0.040193 0.005703 -0.068243 1.972560 -40.985400 0.000008 0.000006 -9.387250 6.800860 -62.399400 -11.754300 -0.000006 -0.000006 -0.010339 0.273822 -5.448010
0.000000 0.000000 0.000000 0.000000 0.000000 -0.000000 -1.674610 93.678600 2.859480 87.907500 -0.128432 -8.395800 15.735700 0.000005 -0.000001 -82.489000 88.186800 84.029800 8.984550 -0.406207 -0.000000 -11.350200 -0.727891 3.021870 16.377300 -0.000001 -0.000001 -7.144120 0.891744 2.577510 6.456720 -0.000001 -0.000000 -2.375890 3.261160 2.373870 12.994200 -0.242716 4.980390 -87.391700 -5.004050 -62.423400 5.348090 -0.000007 -0.000001 -62.763400 -62.809100 -103.555000 24.328600 0.000019 0.000005 0.000046 -4.824240 0.000001 22.291600 -0.000001 0.000005 51.198400 4.103000 22.744800 12.994500 -0.242716 -4.980390 94.280300 -7.443910 -59.984600 -5.348130 -0.000001 -0.000004 -67.747300 -61.374900 -117.210000 -24.328900 0.000322 -0.000009 -0.001057 -18.682300 -0.000104 -22.291500 -0.000108 -0.000004 49.383700 5.370500 -2.002240 -2.192480 -6.469440 -0.000000 -172.146000 -6.360610 -0.645377 39.081100 -0.000007 -0.000012 -0.000001 -0.009879 0.000000 40.985400 -0.000006 -0.000013 -10.195200 13.991200 -60.485000 11.754300 -0.000000 0.000003 -0.001564 0.190753 -8.838290 -2.192510 6.469440 -0.000001 179.024000 9.746920 178.596000 -39.081100 -0.002282 -0.040193 0.005701 -0.067421 1.995430 -40.985400 0.000008 0.000006 -9.303100 6.779200 -62.429600 -11.754300 -0.000006 -0.000006 -0.010276 0.273354 -5.467190
